<?xml version="1.0" encoding="UTF-8" standalone="no"?>
<!-- Created with Inkscape (http://www.inkscape.org/) -->

<svg
   xmlns:osb="http://www.openswatchbook.org/uri/2009/osb"
   xmlns:dc="http://purl.org/dc/elements/1.1/"
   xmlns:cc="http://creativecommons.org/ns#"
   xmlns:rdf="http://www.w3.org/1999/02/22-rdf-syntax-ns#"
   xmlns:svg="http://www.w3.org/2000/svg"
   xmlns="http://www.w3.org/2000/svg"
   xmlns:sodipodi="http://sodipodi.sourceforge.net/DTD/sodipodi-0.dtd"
   xmlns:inkscape="http://www.inkscape.org/namespaces/inkscape"
   width="276.57001"
   height="247.57001"
   id="svg4033"
   version="1.1"
   inkscape:version="0.48.5 r10040"
   sodipodi:docname="annohub_smooth_sub.svg">
  <sodipodi:namedview
     id="base"
     pagecolor="#ffffff"
     bordercolor="#666666"
     borderopacity="1.0"
     inkscape:pageopacity="0.0"
     inkscape:pageshadow="2"
     inkscape:zoom="2.1649824"
     inkscape:cx="159.5049"
     inkscape:cy="109.57443"
     inkscape:document-units="px"
     inkscape:current-layer="layer1"
     showgrid="false"
     inkscape:window-width="1600"
     inkscape:window-height="850"
     inkscape:window-x="0"
     inkscape:window-y="29"
     inkscape:window-maximized="1"
     inkscape:snap-bbox="true"
     inkscape:object-paths="true"
     inkscape:snap-bbox-midpoints="true"
     inkscape:snap-nodes="false"
     fit-margin-top="0"
     fit-margin-left="0"
     fit-margin-right="0"
     fit-margin-bottom="0"
     inkscape:bbox-nodes="true"
     inkscape:bbox-paths="true"
     inkscape:snap-bbox-edge-midpoints="true"
     showguides="true"
     inkscape:guide-bbox="true">
    <sodipodi:guide
       orientation="0,1"
       position="24.181967,247.00155"
       id="guide2992" />
    <sodipodi:guide
       orientation="0,1"
       position="114.44745,245.54723"
       id="guide2994" />
  </sodipodi:namedview>
  <defs
     id="defs4035">
    <linearGradient
       osb:paint="solid"
       id="linearGradient6046">
      <stop
         id="stop6048"
         offset="0"
         style="stop-color:#536c53;stop-opacity:1;" />
    </linearGradient>
    <filter
       id="filter6054"
       color-interpolation-filters="sRGB"
       inkscape:menu-tooltip="Make the lightest parts of the object progressively transparent"
       inkscape:menu="Transparency utilities"
       height="1"
       width="1"
       y="0"
       x="0"
       inkscape:label="Light eraser">
      <feColorMatrix
         id="feColorMatrix6056"
         result="fbSourceGraphic"
         values="1"
         type="saturate" />
      <feColorMatrix
         id="feColorMatrix6058"
         values="-1 0 0 0 1 0 -1 0 0 1 0 0 -1 0 1 0 0 0 1 0 "
         in="fbSourceGraphic"
         result="fbSourceGraphic" />
      <feColorMatrix
         result="fbSourceGraphicAlpha"
         in="fbSourceGraphic"
         values="0 0 0 -1 0 0 0 0 -1 0 0 0 0 -1 0 0 0 0 1 0"
         id="feColorMatrix2988" />
      <feColorMatrix
         id="feColorMatrix2990"
         result="result14"
         type="luminanceToAlpha"
         in="fbSourceGraphic" />
      <feComposite
         id="feComposite2992"
         in2="result14"
         in="fbSourceGraphic"
         result="fbSourceGraphic"
         operator="out" />
      <feBlend
         id="feBlend2994"
         in2="fbSourceGraphic"
         mode="normal"
         result="result15" />
    </filter>
  </defs>
  <metadata
     id="metadata4038">
    <rdf:RDF>
      <cc:Work
         rdf:about="">
        <dc:format>image/svg+xml</dc:format>
        <dc:type
           rdf:resource="http://purl.org/dc/dcmitype/StillImage" />
        <dc:title />
      </cc:Work>
    </rdf:RDF>
  </metadata>
  <g
     id="layer1"
     inkscape:groupmode="layer"
     inkscape:label="Layer 1"
     transform="translate(-223.94051,-589.92274)">
    <path
       transform="matrix(0.77749017,3.5791758e-4,-3.5791758e-4,0.77749017,-5.3635704,422.63859)"
       inkscape:connector-curvature="0"
       d="m 591.77753,533.28944 c -0.10184,-0.22331 -0.67812,-3.06984 -1.28064,-6.32562 -0.60252,-3.25579 -1.24027,-6.68625 -1.41722,-7.62325 -0.22623,-1.19786 1.10168,-1.52051 4.47302,-1.08687 2.63711,0.33921 4.69808,1.14945 4.57992,1.80052 -0.11815,0.65109 -1.24977,3.26169 -2.51469,5.80134 -1.26492,2.53966 -2.60482,5.34259 -2.97755,6.22873 -0.37272,0.88614 -0.761,1.42846 -0.86284,1.20515 z m 2.18613,-20.36116 -6.67371,-1.08896 -0.86549,-4.83348 c -0.47603,-2.65843 -1.96321,-10.38512 -3.30485,-17.17043 l -2.43935,-12.33693 17.74235,2.53342 c 11.44198,1.6338 17.5606,3.10537 17.23053,4.14413 -0.73998,2.3287 -13.16186,27.58945 -14.16793,28.81142 -0.4663,0.56638 -3.851,0.53975 -7.52155,-0.0592 z m 5.96701,-43.29436 -18.13781,-2.62955 13.16531,-104.24639 13.16531,-104.24643 18.1368,2.61016 18.13681,2.61017 -13.16431,104.2658 -13.16431,104.2658 z m 22.63094,-102.8126 c 10.50113,-83.2066 10.51236,-83.31893 8.3754,-83.80239 l -2.13983,-0.48408 -10.59252,83.8627 c -9.97292,78.95731 -10.48564,83.88689 -8.76538,84.27606 1.00491,0.22734 2.0026,0.20019 2.2171,-0.0603 0.2145,-0.26053 5.12185,-37.96692 10.90523,-83.79195 z m -14.54285,-2.7114 10.48224,-83.05684 -2.18491,-0.13821 c -2.18247,-0.13801 -2.19677,-0.0443 -12.74435,83.49616 -9.16197,72.56585 -10.35758,83.69464 -9.0341,84.08992 0.83895,0.25058 1.8569,0.0529 2.26212,-0.43928 0.40522,-0.49218 5.45377,-38.27046 11.219,-83.95175 z m 19.40894,-114.32679 -17.84112,-2.58769 1.15359,-9.62287 c 2.44607,-20.4046 3.45247,-21.3497 20.31746,-19.08007 7.34032,0.98785 13.95154,2.55729 14.6916,3.48764 2.41141,3.03148 2.78547,7.56335 1.53463,18.59243 -0.67646,5.96456 -1.40658,11.05921 -1.62249,11.32146 -0.21591,0.26224 -8.42106,-0.68766 -18.23367,-2.1109 z m -32.46953,112.97485 -42.26978,0 14.34495,-110.93428 -0.19127,0 1.15786,-8.91047 1.50418,-11.57568 c 1.24711,-9.59737 -10.95555,-12.79752 -17.14261,-13.62155 -7.55462,-1.00618 -20.92821,1.35606 -22.49334,13.37989 l -1.32143,10.15167 -1.32949,10.21367 -10.67811,82.03306 c -0.25503,2.1678 -0.5738,4.33548 -0.95634,6.50303 l 0.38254,0 -2.869,22.76066 -24.0995,0 -0.76507,6.12051 24.09951,0 -11.28469,86.06968 -25.8209,0 -0.76507,6.12051 85.11336,0 0.76506,-6.12051 -19.7004,0 9.56331,-72.87233 0,0 1.72139,-13.19735 42.26977,0 m -201.78559,-6.12051 14.34495,-110.16922 c 2.55015,-19.25388 9.1807,-28.88092 19.89166,-28.88116 l 10.32836,0 c 10.7108,2.4e-4 14.8549,9.62728 12.43229,28.88116 l -14.34495,110.16922 -42.65231,0 m 70.19461,92.19019 25.05584,-192.98738 c 1.65751,-12.2408 -1.4665,-22.69667 -9.37203,-31.36762 -7.77827,-8.67048 -18.04286,-13.00584 -30.79383,-13.00608 l -29.83749,0 c -12.62359,2.4e-4 -23.97203,4.3356 -34.04533,13.00608 -10.20088,8.67095 -16.06636,19.12682 -17.59648,31.36762 l -10.51963,81.47933 -0.38253,0 c -0.12751,2.16779 -0.31877,4.33547 -0.5738,6.50303 l -1.72139,12.81483 -21.61306,0 -0.76506,6.12051 21.61306,0 -13.77115,105.96134 c -2.16766,16.57636 -8.79821,26.58593 -19.89166,30.02876 l -19.31789,4.39912 -1.53013,0.38253 29.83751,0 c 12.75108,-5e-5 24.16328,-4.33541 34.23661,-13.00609 10.07333,-8.54324 15.87507,-18.9991 17.40521,-31.36762 l 0.5738,-4.20785 0,0 12.04975,-92.19019 42.65232,0 -11.2847,86.06968 -24.67331,0 -0.95632,6.12051 87.21728,0 0.76506,-6.12051 -22.76065,0"
       style="fill:#ffffff;filter:url(#filter6054)"
       id="path4003"
       sodipodi:nodetypes="sscscsssccsscsssccccccccccccccsscccsccscssscsssscscccccsssccccccccccccccccccccccccccccccccccccccccccccscccccccccccc" />
    <g
       style="font-size:32.96285629px;font-style:normal;font-variant:normal;font-weight:500;font-stretch:normal;text-align:start;line-height:125%;letter-spacing:0px;word-spacing:0px;writing-mode:lr-tb;text-anchor:start;fill:#000000;fill-opacity:1;stroke:none;font-family:Inconsolata;-inkscape-font-specification:Inconsolata Medium"
       id="text3150">
      <path
         d="m 304.39248,810.65876 2.27444,0 3.19739,-6.03221 6.49369,0 1.08777,5.99924 2.40629,0 -3.75777,-20.89845 -0.2637,0 -11.43811,20.93142 m 11.83367,-7.8122 -5.57073,0 4.25221,-7.8122 1.31852,7.8122"
         style="font-style:italic;font-weight:normal;font-family:Inconsolata;-inkscape-font-specification:Inconsolata Italic"
         id="path3227"
         inkscape:connector-curvature="0" />
      <path
         d="m 322.06057,810.62579 2.20851,0 3.23036,-16.1518 5.80146,16.18477 1.84592,0 3.92258,-19.71179 c 0.0659,-0.23074 0.0989,-0.29667 0.23074,-0.46148 0.0659,-0.0659 0.16482,-0.23074 0.16482,-0.39556 l -2.43925,0 -3.06555,15.22884 -5.53776,-15.22884 -2.24147,0 -4.12036,20.53586"
         style="font-style:italic;font-weight:normal;font-family:Inconsolata;-inkscape-font-specification:Inconsolata Italic"
         id="path3229"
         inkscape:connector-curvature="0" />
      <path
         d="m 338.542,810.62579 2.20851,0 3.23036,-16.1518 5.80146,16.18477 1.84592,0 3.92258,-19.71179 c 0.0659,-0.23074 0.0989,-0.29667 0.23074,-0.46148 0.0659,-0.0659 0.16482,-0.23074 0.16482,-0.39556 l -2.43925,0 -3.06555,15.22884 -5.53776,-15.22884 -2.24147,0 -4.12036,20.53586"
         style="font-style:italic;font-weight:normal;font-family:Inconsolata;-inkscape-font-specification:Inconsolata Italic"
         id="path3231"
         inkscape:connector-curvature="0" />
      <path
         d="m 370.94448,800.40731 c 0.39556,-1.91185 0.75815,-4.44999 0.0659,-6.6585 -0.82407,-2.63702 -2.90073,-3.85665 -5.14221,-3.85665 -3.06554,0 -7.87812,2.37333 -9.4933,10.44922 -1.61518,8.07589 2.14259,10.61404 5.30702,10.61404 2.20851,0 4.84554,-1.25259 6.72442,-3.9885 1.54926,-2.20851 2.17555,-4.74666 2.53814,-6.55961 m -5.60368,-8.37257 c 1.45036,0 3.06555,0.85704 3.52702,3.26333 0.3626,1.71406 0.0659,3.69184 -0.29666,5.4059 -0.2637,1.35148 -0.75815,3.46111 -1.94481,5.20814 -1.38444,2.01073 -3.09851,2.80184 -4.48295,2.80184 -2.3074,0 -4.71369,-2.14259 -3.42813,-8.66923 1.21962,-6.13109 4.48295,-8.00998 6.62553,-8.00998"
         style="font-style:italic;font-weight:normal;font-family:Inconsolata;-inkscape-font-specification:Inconsolata Italic"
         id="path3233"
         inkscape:connector-curvature="0" />
      <path
         d="m 375.75706,790.08993 -4.12035,20.53586 2.37332,0 1.94481,-9.757 8.04294,0 -1.94481,9.78997 2.3074,0 3.95554,-19.81068 c 0.0659,-0.36259 0.32963,-0.36259 0.39556,-0.59333 0,-0.0659 -0.033,-0.0989 0,-0.16482 l -2.50518,0 -1.78,8.80109 -8.07589,0 1.61517,-7.97701 c 0.0659,-0.3626 0.29667,-0.39556 0.3626,-0.65926 0,-0.0659 -0.033,-0.0989 0,-0.16482 l -2.57111,0"
         style="font-style:italic;font-weight:normal;font-family:Inconsolata;-inkscape-font-specification:Inconsolata Italic"
         id="path3235"
         inkscape:connector-curvature="0" />
      <path
         d="m 392.10664,790.08993 -2.70295,13.48181 0,0 c -0.29667,1.45037 -0.52741,2.83481 -0.0659,4.25221 0.69222,2.10962 2.80185,3.1974 5.20813,3.1974 2.37333,0 4.87851,-1.05482 6.46072,-3.23036 1.08778,-1.4174 1.38444,-2.83481 1.71407,-4.3511 l 2.66999,-13.34996 -2.17555,0 -2.70295,13.41589 c -0.19778,1.05481 -0.42852,2.07666 -1.1537,3.13147 -1.05481,1.58221 -2.76888,2.40629 -4.38406,2.40629 -1.61518,0 -2.99962,-0.85704 -3.42814,-2.43926 -0.29666,-0.98888 -0.0659,-2.01073 0.13186,-3.03258 l 2.47221,-12.42699 c 0.033,-0.13186 0.0659,-0.26371 0.23074,-0.42852 0.0659,-0.0989 0.23074,-0.2637 0.29667,-0.46148 0,-0.033 0,-0.0989 0,-0.16482 l -2.57111,0"
         style="font-style:italic;font-weight:normal;font-family:Inconsolata;-inkscape-font-specification:Inconsolata Italic"
         id="path3237"
         inkscape:connector-curvature="0" />
      <path
         d="m 408.52214,790.08993 -4.12036,20.53586 5.80146,0 c 1.38444,0 2.80185,0 4.3511,-0.59333 2.37332,-0.95592 4.02147,-2.96666 4.41702,-5.07628 0.49445,-2.40628 -0.62629,-4.54887 -2.73591,-5.30702 1.9448,-0.75814 3.52702,-2.5711 3.92258,-4.51591 0.36259,-1.84592 -0.32963,-3.62591 -2.10963,-4.44998 -1.18666,-0.56037 -2.43925,-0.59334 -3.69184,-0.59334 l -5.83442,0 m 1.87888,1.97778 3.23036,0 c 0.89,0 1.81296,0 2.63703,0.36259 1.25259,0.56036 1.74703,1.71407 1.51629,2.90073 -0.23074,1.18666 -1.1537,2.3074 -2.5711,2.86777 -1.02185,0.39555 -2.01074,0.39555 -2.9337,0.39555 l -3.19739,0 1.31851,-6.52664 m -1.71407,8.47145 3.36221,0 c 1.02185,0 2.0437,0.033 2.96666,0.52741 1.38444,0.69221 1.91185,2.17555 1.61518,3.65887 -0.29666,1.48333 -1.35148,2.83481 -2.90073,3.49406 -0.98888,0.39556 -1.84592,0.39556 -2.73592,0.39556 l -3.92258,0 1.61518,-8.0759"
         style="font-style:italic;font-weight:normal;font-family:Inconsolata;-inkscape-font-specification:Inconsolata Italic"
         id="path3239"
         inkscape:connector-curvature="0" />
    </g>
    <text
       xml:space="preserve"
       style="font-size:40px;font-style:normal;font-variant:normal;font-weight:500;font-stretch:normal;text-align:start;line-height:125%;letter-spacing:0px;word-spacing:0px;writing-mode:lr-tb;text-anchor:start;fill:#000000;fill-opacity:1;stroke:none;font-family:Inconsolata;-inkscape-font-specification:Inconsolata Medium"
       x="290.82401"
       y="837.0127"
       id="text3194"
       sodipodi:linespacing="125%"><tspan
         sodipodi:role="line"
         id="tspan3196"
         x="290.82401"
         y="837.0127" /></text>
  </g>
</svg>
